<svg width="32" height="24" viewBox="0 0 32 24" fill="none" xmlns="http://www.w3.org/2000/svg">
<g clip-path="url(#clip0_1661_768)">
<rect width="32" height="24" fill="white"/>
<path fill-rule="evenodd" clip-rule="evenodd" d="M0 0V24H32V0H0Z" fill="#EF0000"/>
<mask id="mask0_1661_768" style="mask-type:luminance" maskUnits="userSpaceOnUse" x="0" y="0" width="32" height="24">
<path fill-rule="evenodd" clip-rule="evenodd" d="M0 0V24H32V0H0Z" fill="white"/>
</mask>
<g mask="url(#mask0_1661_768)">
<path fill-rule="evenodd" clip-rule="evenodd" d="M0 0V14H18V0H0Z" fill="#2E42A5"/>
<path fill-rule="evenodd" clip-rule="evenodd" d="M8.72958 10.8107L7.24792 12.6593L6.88902 10.3176L4.68161 11.1776L5.54164 8.97019L3.19995 8.61129L5.04846 7.12963L3.19995 5.64797L5.54164 5.28907L4.68161 3.08166L6.88902 3.94169L7.24792 1.6L8.72958 3.44851L10.2112 1.6L10.5701 3.94169L12.7775 3.08166L11.9175 5.28907L14.2592 5.64797L12.4107 7.12963L14.2592 8.61129L11.9175 8.97019L12.7775 11.1776L10.5701 10.3176L10.2112 12.6593L8.72958 10.8107ZM8.72958 9.99198C10.3104 9.99198 11.5919 8.71046 11.5919 7.12963C11.5919 5.5488 10.3104 4.26728 8.72958 4.26728C7.14875 4.26728 5.86723 5.5488 5.86723 7.12963C5.86723 8.71046 7.14875 9.99198 8.72958 9.99198ZM11.0195 7.12963C11.0195 8.39429 9.99424 9.41951 8.72958 9.41951C7.46492 9.41951 6.4397 8.39429 6.4397 7.12963C6.4397 5.86496 7.46492 4.83975 8.72958 4.83975C9.99424 4.83975 11.0195 5.86496 11.0195 7.12963Z" fill="#FEFFFF"/>
</g>
</g>
<defs>
<clipPath id="clip0_1661_768">
<rect width="32" height="24" fill="white"/>
</clipPath>
</defs>
</svg>
